<svg xmlns="http://www.w3.org/2000/svg" version="1.1" xmlns:xlink="http://www.w3.org/1999/xlink" xmlns:svgjs="http://svgjs.dev/svgjs" width="1440" height="560" preserveAspectRatio="none" viewBox="0 0 1440 560"><g mask="url(&quot;#SvgjsMask1000&quot;)" fill="none"><rect width="1440" height="560" x="0" y="0" fill="#0e2a47"></rect><path d="M 0,131 C 96,121.6 288,78.4 480,84 C 672,89.6 768,164.2 960,159 C 1152,153.8 1344,78.2 1440,58L1440 560L0 560z" fill="#2aa3b6"></path><path d="M 0,237 C 57.6,248 172.8,297.2 288,292 C 403.2,286.8 460.8,201 576,211 C 691.2,221 748.8,338.4 864,342 C 979.2,345.6 1036.8,227 1152,229 C 1267.2,231 1382.4,327.4 1440,352L1440 560L0 560z" fill="#184a7e"></path><path d="M 0,458 C 41.2,462.4 123.6,488.2 206,480 C 288.4,471.8 329.6,403.8 412,417 C 494.4,430.2 535.6,545.2 618,546 C 700.4,546.8 741.6,433.2 824,421 C 906.4,408.8 947.6,494.6 1030,485 C 1112.4,475.4 1154,366.2 1236,373 C 1318,379.8 1399.2,489.8 1440,519L1440 560L0 560z" fill="#2264ab"></path></g><defs><mask id="SvgjsMask1000"><rect width="1440" height="560" fill="#ffffff"></rect></mask></defs></svg>